Genre:Action | Adventure 
Language:English
IMDb:http://www.imdb.com/title/tt1640571/
Source:BluRay DTS x264
Subtitles:Romana


Format : Matroska
File size : 1.79 GiB
Duration : 1h 29mn
Overall bit rate : 2 854 Kbps


Video
Format settings, CABAC : Yes
Format settings, ReFrames : 4 frames
Codec ID : V_MPEG4/ISO/AVC
Duration : 1h 29mn
Bit rate : 2 500 Kbps
Width : 1 280 pixels
Height : 720 pixels
Display aspect ratio : 16:9
Frame rate mode : Variable
Frame rate : 23.976 fps
Color space : YUV
Chroma subsampling : 4:2:0
Bit depth : 8 bits
Scan type : Progressive
Bits/(Pixel*Frame) : 0.113
Stream size : 1.51 GiB (85%)
Writing library : x264

Audio
ID : 2
Format : AC-3
Format/Info : Audio Coding 3
Mode extension : CM (complete main)
Codec ID : A_AC3
Duration : 1h 29mn
Bit rate mode : Constant
Bit rate : 384 Kbps
Channel(s) : 6 channels
Channel positions : Front: L C R, Side: L R, LFE
Sampling rate : 48.0 KHz
Bit depth : 16 bits
Video delay : -1mn 5s
Stream size : 247 MiB (13%)
Language : English


Plot:
On the 100th anniversary of the original voyage, a modern luxury liner christened "Titanic 2," follows the path of its namesake








================================== 
http://thepiratebay.org/user/hiest
==================================